<?xml version="1.0" encoding="UTF-8"?>
<svg xmlns="http://www.w3.org/2000/svg" xmlns:xlink="http://www.w3.org/1999/xlink" width="365pt" height="78.92pt" viewBox="0 0 365 78.92" version="1.1">
<g id="surface1">
<path style=" stroke:none;fill-rule:nonzero;fill:rgb(86.698914%,30.999756%,25.498962%);fill-opacity:1;" d="M 3.945313 0 L 361.054688 0 C 363.234375 0 365 1.769531 365 3.945313 L 365 74.972656 C 365 77.152344 363.234375 78.921875 361.054688 78.921875 L 3.945313 78.921875 C 1.765625 78.921875 0 77.152344 0 74.972656 L 0 3.945313 C 0 1.769531 1.765625 0 3.945313 0 "/>
<path style=" stroke:none;fill-rule:nonzero;fill:rgb(100%,100%,100%);fill-opacity:1;" d="M 31.566406 37.488281 L 31.566406 42.222656 L 39.402344 42.222656 C 39.085938 44.253906 37.03125 48.179688 31.566406 48.179688 C 26.851563 48.179688 23.003906 44.273438 23.003906 39.460938 C 23.003906 34.648438 26.851563 30.738281 31.566406 30.738281 C 34.25 30.738281 36.046875 31.882813 37.074219 32.871094 L 40.820313 29.261719 C 38.414063 27.011719 35.296875 25.648438 31.566406 25.648438 C 23.933594 25.648438 17.757813 31.824219 17.757813 39.460938 C 17.757813 47.097656 23.933594 53.273438 31.566406 53.273438 C 39.539063 53.273438 44.824219 47.667969 44.824219 39.777344 C 44.824219 38.867188 44.726563 38.179688 44.609375 37.488281 L 31.566406 37.488281 "/>
<path style=" stroke:none;fill-rule:nonzero;fill:rgb(100%,100%,100%);fill-opacity:1;" d="M 61.160156 37.488281 L 57.214844 37.488281 L 57.214844 33.542969 L 53.269531 33.542969 L 53.269531 37.488281 L 49.324219 37.488281 L 49.324219 41.433594 L 53.269531 41.433594 L 53.269531 45.378906 L 57.214844 45.378906 L 57.214844 41.433594 L 61.160156 41.433594 "/>
<path style=" stroke:none;fill-rule:nonzero;fill:rgb(100%,100%,100%);fill-opacity:1;" d="M 100.675781 46.695313 C 101.308594 47.59375 102.207031 48.300781 103.371094 48.820313 C 104.539063 49.335938 105.792969 49.59375 107.140625 49.59375 C 109.214844 49.59375 110.871094 49.117188 112.109375 48.15625 C 113.351563 47.199219 113.96875 45.925781 113.96875 44.332031 C 113.96875 43.332031 113.746094 42.464844 113.304688 41.726563 C 112.859375 40.988281 112.179688 40.34375 111.261719 39.789063 C 110.339844 39.238281 109.0625 38.730469 107.429688 38.273438 C 105.796875 37.8125 104.636719 37.304688 103.957031 36.753906 C 103.277344 36.199219 102.9375 35.523438 102.9375 34.722656 C 102.9375 33.722656 103.296875 32.941406 104.011719 32.378906 C 104.726563 31.816406 105.726563 31.535156 107.003906 31.535156 C 108.382813 31.535156 109.449219 31.878906 110.203125 32.558594 C 110.960938 33.238281 111.339844 34.175781 111.339844 35.367188 L 113.929688 35.367188 C 113.929688 34.277344 113.640625 33.277344 113.0625 32.359375 C 112.480469 31.441406 111.664063 30.722656 110.609375 30.199219 C 109.554688 29.679688 108.351563 29.417969 107.003906 29.417969 C 105.03125 29.417969 103.429688 29.921875 102.195313 30.933594 C 100.964844 31.941406 100.347656 33.21875 100.347656 34.761719 C 100.347656 36.128906 100.847656 37.28125 101.851563 38.210938 C 102.855469 39.144531 104.46875 39.925781 106.691406 40.566406 C 108.46875 41.078125 109.691406 41.597656 110.367188 42.125 C 111.042969 42.652344 111.378906 43.398438 111.378906 44.359375 C 111.378906 45.320313 111.015625 46.082031 110.285156 46.640625 C 109.558594 47.199219 108.507813 47.476563 107.140625 47.476563 C 105.675781 47.476563 104.507813 47.132813 103.628906 46.445313 C 102.753906 45.757813 102.316406 44.820313 102.316406 43.632813 L 99.726563 43.632813 C 99.726563 44.777344 100.042969 45.796875 100.675781 46.695313 Z M 117.722656 31.875 C 117.96875 32.144531 118.335938 32.277344 118.820313 32.277344 C 119.308594 32.277344 119.675781 32.144531 119.925781 31.875 C 120.179688 31.601563 120.304688 31.265625 120.304688 30.863281 C 120.304688 30.457031 120.179688 30.117188 119.925781 29.835938 C 119.675781 29.558594 119.308594 29.417969 118.820313 29.417969 C 118.335938 29.417969 117.96875 29.558594 117.722656 29.835938 C 117.476563 30.117188 117.351563 30.457031 117.351563 30.863281 C 117.351563 31.265625 117.476563 31.601563 117.722656 31.875 Z M 120.050781 49.324219 L 120.050781 34.734375 L 117.554688 34.734375 L 117.554688 49.324219 Z M 125.445313 47.53125 C 126.5 48.90625 127.878906 49.59375 129.585938 49.59375 C 131.316406 49.59375 132.679688 49.019531 133.679688 47.867188 L 133.679688 49.125 C 133.679688 50.363281 133.339844 51.324219 132.660156 52.007813 C 131.980469 52.695313 131.03125 53.035156 129.816406 53.035156 C 128.269531 53.035156 126.957031 52.375 125.886719 51.050781 L 124.601563 52.550781 C 125.128906 53.332031 125.898438 53.949219 126.90625 54.398438 C 127.910156 54.84375 128.941406 55.070313 129.992188 55.070313 C 131.878906 55.070313 133.378906 54.527344 134.496094 53.4375 C 135.617188 52.351563 136.175781 50.863281 136.175781 48.976563 L 136.175781 34.734375 L 133.882813 34.734375 L 133.777344 36.351563 C 132.777344 35.09375 131.390625 34.460938 129.613281 34.460938 C 127.878906 34.460938 126.488281 35.136719 125.4375 36.476563 C 124.386719 37.824219 123.863281 39.632813 123.863281 41.90625 C 123.863281 44.28125 124.390625 46.15625 125.445313 47.53125 Z M 127.382813 37.996094 C 128.066406 37.050781 129.019531 36.582031 130.234375 36.582031 C 131.765625 36.582031 132.914063 37.277344 133.679688 38.671875 L 133.679688 45.332031 C 132.941406 46.761719 131.785156 47.476563 130.207031 47.476563 C 128.992188 47.476563 128.046875 47.007813 127.371094 46.070313 C 126.695313 45.128906 126.355469 43.835938 126.355469 42.191406 C 126.355469 40.339844 126.699219 38.941406 127.382813 37.996094 Z M 142.859375 49.324219 L 142.859375 38.925781 C 143.203125 38.226563 143.679688 37.660156 144.289063 37.226563 C 144.902344 36.796875 145.613281 36.582031 146.421875 36.582031 C 147.421875 36.582031 148.15625 36.832031 148.628906 37.335938 C 149.097656 37.839844 149.339844 38.617188 149.347656 39.667969 L 149.347656 49.324219 L 151.84375 49.324219 L 151.84375 39.683594 C 151.816406 36.203125 150.261719 34.460938 147.175781 34.460938 C 145.378906 34.460938 143.921875 35.164063 142.808594 36.566406 L 142.726563 34.734375 L 140.367188 34.734375 L 140.367188 49.324219 Z M 163.65625 31.875 C 163.90625 32.144531 164.269531 32.277344 164.757813 32.277344 C 165.242188 32.277344 165.609375 32.144531 165.863281 31.875 C 166.113281 31.601563 166.238281 31.265625 166.238281 30.863281 C 166.238281 30.457031 166.113281 30.117188 165.863281 29.835938 C 165.609375 29.558594 165.242188 29.417969 164.757813 29.417969 C 164.269531 29.417969 163.90625 29.558594 163.65625 29.835938 C 163.410156 30.117188 163.285156 30.457031 163.285156 30.863281 C 163.285156 31.265625 163.410156 31.601563 163.65625 31.875 Z M 165.984375 49.324219 L 165.984375 34.734375 L 163.488281 34.734375 L 163.488281 49.324219 Z M 172.886719 49.324219 L 172.886719 38.925781 C 173.226563 38.226563 173.703125 37.660156 174.316406 37.226563 C 174.925781 36.796875 175.636719 36.582031 176.445313 36.582031 C 177.445313 36.582031 178.179688 36.832031 178.652344 37.335938 C 179.121094 37.839844 179.363281 38.617188 179.371094 39.667969 L 179.371094 49.324219 L 181.867188 49.324219 L 181.867188 39.683594 C 181.839844 36.203125 180.285156 34.460938 177.199219 34.460938 C 175.402344 34.460938 173.945313 35.164063 172.832031 36.566406 L 172.75 34.734375 L 170.390625 34.734375 L 170.390625 49.324219 Z M 196.238281 49.324219 L 198.222656 49.324219 L 201.683594 38.210938 L 205.246094 49.324219 L 207.273438 49.324219 L 211.519531 34.734375 L 209.023438 34.734375 L 206.199219 45.890625 L 202.734375 34.734375 L 200.742188 34.734375 L 197.34375 45.65625 L 194.484375 34.734375 L 191.988281 34.734375 Z M 214.855469 31.875 C 215.101563 32.144531 215.46875 32.277344 215.953125 32.277344 C 216.4375 32.277344 216.808594 32.144531 217.058594 31.875 C 217.308594 31.601563 217.4375 31.265625 217.4375 30.863281 C 217.4375 30.457031 217.308594 30.117188 217.058594 29.835938 C 216.808594 29.558594 216.4375 29.417969 215.953125 29.417969 C 215.46875 29.417969 215.101563 29.558594 214.855469 29.835938 C 214.605469 30.117188 214.484375 30.457031 214.484375 30.863281 C 214.484375 31.265625 214.605469 31.601563 214.855469 31.875 Z M 217.179688 49.324219 L 217.179688 34.734375 L 214.683594 34.734375 L 214.683594 49.324219 Z M 222.476563 36.660156 L 222.476563 45.710938 C 222.476563 46.953125 222.761719 47.910156 223.324219 48.582031 C 223.894531 49.257813 224.734375 49.59375 225.847656 49.59375 C 226.46875 49.59375 227.109375 49.507813 227.765625 49.328125 L 227.765625 47.316406 C 227.261719 47.421875 226.863281 47.476563 226.578125 47.476563 C 225.992188 47.476563 225.578125 47.332031 225.335938 47.039063 C 225.09375 46.746094 224.972656 46.308594 224.972656 45.722656 L 224.972656 36.660156 L 227.695313 36.660156 L 227.695313 34.734375 L 224.972656 34.734375 L 224.972656 31.199219 L 222.476563 31.199219 L 222.476563 34.734375 L 219.820313 34.734375 L 219.820313 36.660156 Z M 233.519531 49.324219 L 233.519531 38.925781 C 233.859375 38.226563 234.335938 37.660156 234.949219 37.226563 C 235.558594 36.796875 236.269531 36.582031 237.078125 36.582031 C 238.078125 36.582031 238.8125 36.832031 239.285156 37.335938 C 239.757813 37.839844 239.996094 38.617188 240.007813 39.667969 L 240.007813 49.324219 L 242.5 49.324219 L 242.5 39.683594 C 242.472656 36.203125 240.917969 34.460938 237.835938 34.460938 C 236.0625 34.460938 234.625 35.140625 233.519531 36.5 L 233.519531 28.609375 L 231.023438 28.609375 L 231.023438 49.324219 Z M 254.703125 45.265625 C 255.382813 46.652344 256.34375 47.71875 257.582031 48.46875 C 258.824219 49.21875 260.242188 49.59375 261.84375 49.59375 C 263.429688 49.59375 264.820313 49.359375 266.015625 48.886719 C 267.210938 48.417969 268.140625 47.703125 268.808594 46.75 L 268.808594 39.546875 L 261.6875 39.546875 L 261.6875 41.664063 L 266.21875 41.664063 L 266.21875 46.066406 C 265.742188 46.574219 265.136719 46.941406 264.40625 47.152344 C 263.679688 47.371094 262.828125 47.476563 261.855469 47.476563 C 260.136719 47.476563 258.773438 46.828125 257.761719 45.527344 C 256.753906 44.226563 256.25 42.472656 256.25 40.269531 L 256.25 38.664063 C 256.257813 36.351563 256.710938 34.585938 257.609375 33.363281 C 258.503906 32.148438 259.820313 31.535156 261.558594 31.535156 C 264.167969 31.535156 265.71875 32.839844 266.203125 35.449219 L 268.808594 35.449219 C 268.527344 33.523438 267.761719 32.035156 266.507813 30.992188 C 265.253906 29.941406 263.601563 29.417969 261.542969 29.417969 C 259.046875 29.417969 257.109375 30.230469 255.730469 31.859375 C 254.351563 33.488281 253.660156 35.78125 253.660156 38.738281 L 253.660156 40.449219 C 253.679688 42.277344 254.027344 43.878906 254.703125 45.265625 Z M 274.3125 47.53125 C 275.535156 48.90625 277.136719 49.59375 279.113281 49.59375 C 280.429688 49.59375 281.589844 49.28125 282.605469 48.652344 C 283.617188 48.019531 284.394531 47.140625 284.9375 46.015625 C 285.484375 44.886719 285.757813 43.609375 285.757813 42.191406 L 285.757813 42.015625 C 285.757813 39.730469 285.140625 37.902344 283.914063 36.527344 C 282.683594 35.152344 281.074219 34.460938 279.085938 34.460938 C 277.804688 34.460938 276.660156 34.773438 275.65625 35.394531 C 274.65625 36.015625 273.875 36.894531 273.3125 38.035156 C 272.753906 39.179688 272.472656 40.464844 272.472656 41.894531 L 272.472656 42.070313 C 272.472656 44.335938 273.085938 46.15625 274.3125 47.53125 Z M 276.101563 37.972656 C 276.859375 36.992188 277.851563 36.5 279.085938 36.5 C 280.347656 36.5 281.359375 36.996094 282.121094 37.992188 C 282.882813 38.988281 283.261719 40.285156 283.261719 41.886719 C 283.261719 43.679688 282.886719 45.070313 282.140625 46.066406 C 281.390625 47.0625 280.382813 47.558594 279.113281 47.558594 C 277.851563 47.558594 276.847656 47.066406 276.09375 46.085938 C 275.34375 45.105469 274.96875 43.804688 274.96875 42.183594 C 274.96875 40.355469 275.34375 38.953125 276.101563 37.972656 Z M 290.476563 47.53125 C 291.703125 48.90625 293.304688 49.59375 295.28125 49.59375 C 296.59375 49.59375 297.757813 49.28125 298.769531 48.652344 C 299.785156 48.019531 300.5625 47.140625 301.105469 46.015625 C 301.652344 44.886719 301.925781 43.609375 301.925781 42.191406 L 301.925781 42.015625 C 301.925781 39.730469 301.308594 37.902344 300.082031 36.527344 C 298.851563 35.152344 297.242188 34.460938 295.253906 34.460938 C 293.96875 34.460938 292.828125 34.773438 291.824219 35.394531 C 290.824219 36.015625 290.042969 36.894531 289.480469 38.035156 C 288.917969 39.179688 288.640625 40.464844 288.640625 41.894531 L 288.640625 42.070313 C 288.640625 44.335938 289.253906 46.15625 290.476563 47.53125 Z M 292.269531 37.972656 C 293.023438 36.992188 294.019531 36.5 295.253906 36.5 C 296.515625 36.5 297.527344 36.996094 298.285156 37.992188 C 299.046875 38.988281 299.429688 40.285156 299.429688 41.886719 C 299.429688 43.679688 299.054688 45.070313 298.308594 46.066406 C 297.558594 47.0625 296.550781 47.558594 295.28125 47.558594 C 294.019531 47.558594 293.011719 47.066406 292.261719 46.085938 C 291.511719 45.105469 291.132813 43.804688 291.132813 42.183594 C 291.132813 40.355469 291.511719 38.953125 292.269531 37.972656 Z M 306.457031 47.53125 C 307.511719 48.90625 308.890625 49.59375 310.597656 49.59375 C 312.328125 49.59375 313.691406 49.019531 314.691406 47.867188 L 314.691406 49.125 C 314.691406 50.363281 314.351563 51.324219 313.671875 52.007813 C 312.992188 52.695313 312.042969 53.035156 310.828125 53.035156 C 309.28125 53.035156 307.96875 52.375 306.898438 51.050781 L 305.609375 52.550781 C 306.140625 53.332031 306.910156 53.949219 307.917969 54.398438 C 308.921875 54.84375 309.949219 55.070313 311.003906 55.070313 C 312.890625 55.070313 314.390625 54.527344 315.511719 53.4375 C 316.628906 52.351563 317.1875 50.863281 317.1875 48.976563 L 317.1875 34.734375 L 314.894531 34.734375 L 314.785156 36.351563 C 313.789063 35.09375 312.402344 34.460938 310.625 34.460938 C 308.890625 34.460938 307.5 35.136719 306.449219 36.476563 C 305.398438 37.824219 304.871094 39.632813 304.871094 41.90625 C 304.871094 44.28125 305.402344 46.15625 306.457031 47.53125 Z M 308.394531 37.996094 C 309.078125 37.050781 310.03125 36.582031 311.246094 36.582031 C 312.777344 36.582031 313.925781 37.277344 314.691406 38.671875 L 314.691406 45.332031 C 313.953125 46.761719 312.796875 47.476563 311.21875 47.476563 C 310.003906 47.476563 309.058594 47.007813 308.382813 46.070313 C 307.707031 45.128906 307.367188 43.835938 307.367188 42.191406 C 307.367188 40.339844 307.710938 38.941406 308.394531 37.996094 Z M 324.089844 49.324219 L 324.089844 28.609375 L 321.59375 28.609375 L 321.59375 49.324219 Z M 329.722656 47.644531 C 330.964844 48.945313 332.574219 49.59375 334.550781 49.59375 C 336.996094 49.59375 338.832031 48.65625 340.054688 46.777344 L 338.53125 45.589844 C 338.070313 46.183594 337.535156 46.660156 336.925781 47.019531 C 336.3125 47.378906 335.566406 47.558594 334.6875 47.558594 C 333.445313 47.558594 332.421875 47.117188 331.617188 46.230469 C 330.8125 45.34375 330.390625 44.183594 330.355469 42.742188 L 340.242188 42.742188 L 340.242188 41.707031 C 340.242188 39.375 339.714844 37.589844 338.664063 36.335938 C 337.613281 35.085938 336.136719 34.460938 334.242188 34.460938 C 333.082031 34.460938 332.003906 34.785156 331.011719 35.425781 C 330.015625 36.070313 329.242188 36.960938 328.691406 38.097656 C 328.136719 39.234375 327.859375 40.527344 327.859375 41.976563 L 327.859375 42.433594 C 327.859375 44.609375 328.480469 46.347656 329.722656 47.644531 Z M 331.703125 37.605469 C 332.386719 36.867188 333.234375 36.5 334.242188 36.5 C 335.285156 36.5 336.109375 36.851563 336.722656 37.550781 C 337.335938 38.253906 337.675781 39.242188 337.746094 40.515625 L 337.746094 40.707031 L 330.4375 40.707031 C 330.597656 39.378906 331.023438 38.34375 331.703125 37.605469 "/>
</g>
</svg>
